<?xml version="1.0" encoding="utf-8"?>
<!-- Generator: Adobe Illustrator 18.1.1, SVG Export Plug-In . SVG Version: 6.00 Build 0)  -->
<svg version="1.1" id="Слой_1" xmlns="http://www.w3.org/2000/svg" xmlns:xlink="http://www.w3.org/1999/xlink" x="0px" y="0px"
	 viewBox="-411.4 292.3 10.7 11.1" enable-background="new -411.4 292.3 10.7 11.1" xml:space="preserve">
<path fill="#80858E" d="M-408.9,293.5c0,0.7-0.6,1.2-1.2,1.2c-0.7,0-1.2-0.6-1.2-1.2c0-0.7,0.6-1.2,1.2-1.2
	C-409.4,292.3-408.9,292.8-408.9,293.5z"/>
<path fill="#80858E" d="M-408.9,297.8c0,0.7-0.6,1.2-1.2,1.2c-0.7,0-1.2-0.6-1.2-1.2s0.6-1.2,1.2-1.2
	C-409.4,296.6-408.9,297.1-408.9,297.8z"/>
<path fill="#80858E" d="M-408.9,302.1c0,0.7-0.6,1.2-1.2,1.2c-0.7,0-1.2-0.6-1.2-1.2c0-0.7,0.6-1.2,1.2-1.2
	C-409.4,300.9-408.9,301.4-408.9,302.1z"/>
<path fill="#80858E" d="M-404.8,293.5c0,0.7-0.6,1.2-1.2,1.2c-0.7,0-1.2-0.6-1.2-1.2c0-0.7,0.6-1.2,1.2-1.2
	C-405.3,292.3-404.8,292.8-404.8,293.5z"/>
<path fill="#80858E" d="M-404.8,297.8c0,0.7-0.6,1.2-1.2,1.2c-0.7,0-1.2-0.6-1.2-1.2s0.6-1.2,1.2-1.2
	C-405.3,296.6-404.8,297.1-404.8,297.8z"/>
<path fill="#80858E" d="M-404.8,302.1c0,0.7-0.6,1.2-1.2,1.2c-0.7,0-1.2-0.6-1.2-1.2c0-0.7,0.6-1.2,1.2-1.2
	C-405.3,300.9-404.8,301.4-404.8,302.1z"/>
<path fill="#80858E" d="M-400.6,293.5c0,0.7-0.6,1.2-1.2,1.2s-1.2-0.6-1.2-1.2c0-0.7,0.6-1.2,1.2-1.2S-400.6,292.8-400.6,293.5z"/>
<path fill="#80858E" d="M-400.6,297.8c0,0.7-0.6,1.2-1.2,1.2s-1.2-0.6-1.2-1.2s0.6-1.2,1.2-1.2S-400.6,297.1-400.6,297.8z"/>
<path fill="#80858E" d="M-400.6,302.1c0,0.7-0.6,1.2-1.2,1.2s-1.2-0.6-1.2-1.2c0-0.7,0.6-1.2,1.2-1.2S-400.6,301.4-400.6,302.1z"/>
</svg>
