<?xml version="1.0" encoding="utf-8"?>
<!-- Generator: Adobe Illustrator 18.1.1, SVG Export Plug-In . SVG Version: 6.00 Build 0)  -->
<svg version="1.1" id="Слой_1" xmlns="http://www.w3.org/2000/svg" xmlns:xlink="http://www.w3.org/1999/xlink" x="0px" y="0px"
	 viewBox="-340 212.3 161 161" enable-background="new -340 212.3 161 161" xml:space="preserve">
<path fill="#FFFFFF" stroke="#025EA1" stroke-width="2" d="M-183,372.3h-153c-1.7,0-3-1.3-3-3v-153c0-1.7,1.3-3,3-3h153
	c1.7,0,3,1.3,3,3v153C-180,370.9-181.3,372.3-183,372.3z"/>
<circle fill="none" stroke="#025EA1" stroke-width="2" cx="-259.2" cy="270.8" r="24.4"/>
<defs>
	<filter id="Adobe_OpacityMaskFilter" filterUnits="userSpaceOnUse" x="-303.2" y="299.4" width="88" height="44.9">
		<feColorMatrix  type="matrix" values="1 0 0 0 0  0 1 0 0 0  0 0 1 0 0  0 0 0 1 0"/>
	</filter>
</defs>
<mask maskUnits="userSpaceOnUse" x="-303.2" y="299.4" width="88" height="44.9" id="path-3-inside-1_60_3048">
	<path fill="#FFFFFF" filter="url(#Adobe_OpacityMaskFilter)" d="M-217.2,342.3c0-5.4-1.1-10.7-3.2-15.7c-2.1-5-5.2-9.5-9.1-13.3
		c-3.9-3.8-8.5-6.8-13.6-8.9c-5.1-2.1-10.6-3.1-16.1-3.1c-5.5,0-11,1.1-16.1,3.1c-5.1,2.1-9.7,5.1-13.6,8.9c-3.9,3.8-7,8.3-9.1,13.3
		c-2.1,5-3.2,10.3-3.2,15.7h42H-217.2z"/>
</mask>
<path mask="url(#path-3-inside-1_60_3048)" fill="none" stroke="#025EA1" stroke-width="4" d="M-217.2,342.3
	c0-5.4-1.1-10.7-3.2-15.7c-2.1-5-5.2-9.5-9.1-13.3c-3.9-3.8-8.5-6.8-13.6-8.9c-5.1-2.1-10.6-3.1-16.1-3.1c-5.5,0-11,1.1-16.1,3.1
	c-5.1,2.1-9.7,5.1-13.6,8.9c-3.9,3.8-7,8.3-9.1,13.3c-2.1,5-3.2,10.3-3.2,15.7h42H-217.2z"/>
</svg>
