<?xml version="1.0" encoding="utf-8"?>
<!-- Generator: Adobe Illustrator 18.1.1, SVG Export Plug-In . SVG Version: 6.00 Build 0)  -->
<svg version="1.1" id="Слой_1" xmlns="http://www.w3.org/2000/svg" xmlns:xlink="http://www.w3.org/1999/xlink" x="0px" y="0px"
	 viewBox="-340 212.3 161 161" enable-background="new -340 212.3 161 161" xml:space="preserve">
<path fill="#FFFFFF" stroke="#8CCE5A" stroke-width="2" d="M-183,372.3h-153c-1.7,0-3-1.3-3-3v-153c0-1.7,1.3-3,3-3h153
	c1.7,0,3,1.3,3,3v153C-180,370.9-181.3,372.3-183,372.3z"/>
<circle fill="#8CCE5A" cx="-259.2" cy="270.8" r="25.4"/>
<path fill="#8CCE5A" d="M-217.2,342.3c0-5.4-1.1-10.7-3.2-15.7c-2.1-5-5.2-9.5-9.1-13.3c-3.9-3.8-8.5-6.8-13.6-8.9
	c-5.1-2.1-10.6-3.1-16.1-3.1c-5.5,0-11,1.1-16.1,3.1c-5.1,2.1-9.7,5.1-13.6,8.9c-3.9,3.8-7,8.3-9.1,13.3c-2.1,5-3.2,10.3-3.2,15.7
	h42H-217.2z"/>
</svg>
