<?xml version="1.0" encoding="utf-8"?>
<!-- Generator: Adobe Illustrator 18.1.1, SVG Export Plug-In . SVG Version: 6.00 Build 0)  -->
<svg version="1.1" id="Слой_1" xmlns="http://www.w3.org/2000/svg" xmlns:xlink="http://www.w3.org/1999/xlink" x="0px" y="0px"
	 viewBox="-406.5 285.8 25 23.9" enable-background="new -406.5 285.8 25 23.9" xml:space="preserve">
<path fill="none" stroke="#80858E" stroke-linejoin="round" d="M-384.8,288h-18.5c-1.5,0-2.8,1.2-2.8,2.6v15.8
	c0,1.5,1.2,2.6,2.8,2.6h18.5c1.5,0,2.8-1.2,2.8-2.6v-15.8C-382,289.2-383.2,288-384.8,288z"/>
<path fill="#80858E" stroke="#80858E" stroke-miterlimit="10" d="M-392.1,297c0.6,0,1-0.4,1-1c0-0.5-0.4-1-1-1s-1,0.4-1,1
	C-393.1,296.6-392.6,297-392.1,297z"/>
<path fill="#80858E" stroke="#80858E" stroke-miterlimit="10" d="M-387.5,297c0.6,0,1-0.4,1-1c0-0.5-0.4-1-1-1c-0.6,0-1,0.4-1,1
	C-388.5,296.6-388,297-387.5,297z"/>
<path fill="#80858E" stroke="#80858E" stroke-miterlimit="10" d="M-392.1,301.4c0.6,0,1-0.4,1-1c0-0.5-0.4-1-1-1s-1,0.4-1,1
	C-393.1,301-392.6,301.4-392.1,301.4z"/>
<path fill="#80858E" stroke="#80858E" stroke-miterlimit="10" d="M-387.5,301.4c0.6,0,1-0.4,1-1c0-0.5-0.4-1-1-1c-0.6,0-1,0.4-1,1
	C-388.5,301-388,301.4-387.5,301.4z"/>
<path fill="#80858E" stroke="#80858E" stroke-miterlimit="10" d="M-401.3,301.4c0.6,0,1-0.4,1-1c0-0.5-0.4-1-1-1s-1,0.4-1,1
	C-402.3,301-401.9,301.4-401.3,301.4z"/>
<path fill="#80858E" stroke="#80858E" stroke-miterlimit="10" d="M-396.7,301.4c0.6,0,1-0.4,1-1c0-0.5-0.4-1-1-1c-0.6,0-1,0.4-1,1
	C-397.7,301-397.2,301.4-396.7,301.4z"/>
<path fill="#80858E" stroke="#80858E" stroke-miterlimit="10" d="M-401.3,305.8c0.6,0,1-0.4,1-1c0-0.5-0.4-1-1-1s-1,0.4-1,1
	C-402.3,305.4-401.9,305.8-401.3,305.8z"/>
<path fill="#80858E" stroke="#80858E" stroke-miterlimit="10" d="M-396.7,305.8c0.6,0,1-0.4,1-1c0-0.5-0.4-1-1-1c-0.6,0-1,0.4-1,1
	C-397.7,305.4-397.2,305.8-396.7,305.8z"/>
<path fill="#80858E" stroke="#80858E" stroke-miterlimit="10" d="M-392.1,305.8c0.6,0,1-0.4,1-1c0-0.5-0.4-1-1-1s-1,0.4-1,1
	C-393.1,305.4-392.6,305.8-392.1,305.8z"/>
<path fill="none" stroke="#80858E" stroke-linecap="round" stroke-linejoin="round" d="M-401.4,286.3v1.8 M-386.6,286.3v1.8"/>
<path fill="none" stroke="#80858E" stroke-linejoin="round" d="M-382,292.4h-24"/>
</svg>
