<svg width="161" height="171" viewBox="0 0 161 171" fill="none" xmlns="http://www.w3.org/2000/svg">
<rect x="160" y="160" width="159" height="159" rx="3" transform="rotate(180 160 160)" fill="white" stroke="#025EA1" stroke-width="2"/>
<circle cx="80.7614" cy="58.5329" r="24.3855" stroke="#025EA1" stroke-width="2"/>
<mask id="path-3-inside-1_60_3048" fill="white">
<path d="M122.806 130.042C122.806 124.67 121.72 119.35 119.61 114.386C117.5 109.423 114.407 104.912 110.508 101.114C106.609 97.3145 101.98 94.301 96.8862 92.2451C91.792 90.1891 86.332 89.1309 80.8181 89.1309C75.3041 89.1309 69.8442 90.1891 64.75 92.2451C59.6557 94.301 55.027 97.3146 51.1281 101.114C47.2291 104.912 44.1363 109.423 42.0262 114.386C39.9161 119.35 38.8301 124.67 38.8301 130.042L80.8181 130.042H122.806Z"/>
</mask>
<path d="M122.806 130.042C122.806 124.67 121.72 119.35 119.61 114.386C117.5 109.423 114.407 104.912 110.508 101.114C106.609 97.3145 101.98 94.301 96.8862 92.2451C91.792 90.1891 86.332 89.1309 80.8181 89.1309C75.3041 89.1309 69.8442 90.1891 64.75 92.2451C59.6557 94.301 55.027 97.3146 51.1281 101.114C47.2291 104.912 44.1363 109.423 42.0262 114.386C39.9161 119.35 38.8301 124.67 38.8301 130.042L80.8181 130.042H122.806Z" stroke="#025EA1" stroke-width="4" mask="url(#path-3-inside-1_60_3048)"/>
</svg>
